<?xml version="1.0" encoding="UTF-8" standalone="no"?>
<svg
   xmlns:dc="http://purl.org/dc/elements/1.1/"
   xmlns:cc="http://creativecommons.org/ns#"
   xmlns:rdf="http://www.w3.org/1999/02/22-rdf-syntax-ns#"
   xmlns:svg="http://www.w3.org/2000/svg"
   xmlns="http://www.w3.org/2000/svg"
   xmlns:sodipodi="http://sodipodi.sourceforge.net/DTD/sodipodi-0.dtd"
   xmlns:inkscape="http://www.inkscape.org/namespaces/inkscape"
   enable-background="new 0 0 515.91 728.5"
   height="512"
   id="Layer_1"
   version="1.1"
   viewBox="0 0 512.00003 512"
   width="512"
   xml:space="preserve"
   sodipodi:docname="archlinux.svg"
   inkscape:version="1.0.1 (3bc2e813f5, 2020-09-07)"><metadata
     id="metadata9"><rdf:RDF><cc:Work
         rdf:about=""><dc:format>image/svg+xml</dc:format><dc:type
           rdf:resource="http://purl.org/dc/dcmitype/StillImage" /><dc:title></dc:title></cc:Work></rdf:RDF></metadata><sodipodi:namedview
     pagecolor="#0000ff"
     bordercolor="#666666"
     borderopacity="1"
     objecttolerance="10"
     gridtolerance="10"
     guidetolerance="10"
     inkscape:pageopacity="0"
     inkscape:pageshadow="2"
     inkscape:window-width="1366"
     inkscape:window-height="718"
     id="namedview7"
     showgrid="false"
     inkscape:zoom="0.515625"
     inkscape:cx="188.42706"
     inkscape:cy="185.26936"
     inkscape:window-x="0"
     inkscape:window-y="26"
     inkscape:window-maximized="1"
     inkscape:current-layer="Layer_1" /><defs
     id="defs7" /><path
     d="m 259.19846,2.705653 c -22.74087,55.754369 -36.45705,92.224423 -61.77609,146.321507 15.52381,16.45511 34.57847,35.61785 65.52288,57.26044 C 229.67681,192.59781 206.98362,178.85363 190.02478,164.59124 157.62136,232.20593 106.85458,328.52004 3.8320723,513.63008 84.804278,466.88353 147.5723,438.06378 206.06914,427.06691 c -2.51168,-10.80354 -3.94004,-22.4897 -3.84304,-34.68292 l 0.0962,-2.59401 c 1.28502,-51.87663 28.27116,-91.76976 60.2389,-89.0611 31.96773,2.70867 56.81583,46.98404 55.53096,98.86071 -0.24154,9.76155 -1.34247,19.15203 -3.26651,27.86161 57.86167,11.31878 119.95868,40.06476 199.83528,86.17888 -15.75025,-28.99699 -29.80852,-55.13566 -43.23369,-80.03012 -21.14665,-16.39018 -43.20392,-37.72208 -88.19636,-60.81518 30.92529,8.03567 53.06711,17.3067 70.32629,27.66946 C 317.06014,146.3199 306.0067,112.55072 259.19846,2.705653 Z"
     id="path2518"
     style="fill:#ffffff;fill-opacity:1;fill-rule:evenodd;stroke:none;stroke-width:1.48094" /></svg>
