<?xml version="1.0" encoding="UTF-8" standalone="no"?>
<svg
   width="64"
   height="64"
   version="1.1"
   id="svg14"
   sodipodi:docname="dwarffortress.svg"
   inkscape:version="1.1 (c68e22c387, 2021-05-23)"
   xmlns:inkscape="http://www.inkscape.org/namespaces/inkscape"
   xmlns:sodipodi="http://sodipodi.sourceforge.net/DTD/sodipodi-0.dtd"
   xmlns="http://www.w3.org/2000/svg"
   xmlns:svg="http://www.w3.org/2000/svg">
  <defs
     id="defs18" />
  <sodipodi:namedview
     id="namedview16"
     pagecolor="#ffffff"
     bordercolor="#666666"
     borderopacity="1.0"
     inkscape:pageshadow="2"
     inkscape:pageopacity="0.0"
     inkscape:pagecheckerboard="0"
     showgrid="false"
     inkscape:zoom="7.484375"
     inkscape:cx="18.572025"
     inkscape:cy="31.532359"
     inkscape:window-width="1366"
     inkscape:window-height="699"
     inkscape:window-x="0"
     inkscape:window-y="32"
     inkscape:window-maximized="1"
     inkscape:current-layer="svg14">
    <inkscape:grid
       type="xygrid"
       id="grid1140" />
  </sodipodi:namedview>
  <g
     id="g2060">
    <circle
       style="opacity:0.2"
       cx="32"
       cy="33"
       r="28"
       id="circle2" />
    <circle
       style="fill:#5d5d5d;fill-opacity:1"
       cx="32"
       cy="32"
       r="28"
       id="circle4" />
    <path
       style="opacity:0.2;fill:#ffffff"
       d="M 32,4 A 28,28 0 0 0 4,32 28,28 0 0 0 4.0215,32.586 28,28 0 0 1 32,5 28,28 0 0 1 59.979,32.414 28,28 0 0 0 60,32 28,28 0 0 0 32,4 Z"
       id="path6" />
    <path
       id="path1774-6"
       style="fill:#ffffff;fill-opacity:0.2;stroke-width:0.870386"
       d="m 23,18 v 6 H 17 V 48 H 47 V 24 h -6 v -6 z m 0,12 h 18 v 6 h -6 v 6 h -6 v -6 h -6 z" />
    <path
       id="path1774"
       style="fill:#ffffff;fill-opacity:1;stroke-width:0.870386"
       d="M 23 17 L 23 23 L 17 23 L 17 47 L 47 47 L 47 23 L 41 23 L 41 17 L 23 17 z M 23 29 L 41 29 L 41 35 L 35 35 L 35 41 L 29 41 L 29 35 L 23 35 L 23 29 z " />
  </g>
</svg>
