<?xml version="1.0" encoding="UTF-8" standalone="no"?>
<svg
   xmlns:dc="http://purl.org/dc/elements/1.1/"
   xmlns:cc="http://creativecommons.org/ns#"
   xmlns:rdf="http://www.w3.org/1999/02/22-rdf-syntax-ns#"
   xmlns:svg="http://www.w3.org/2000/svg"
   xmlns="http://www.w3.org/2000/svg"
   xmlns:sodipodi="http://sodipodi.sourceforge.net/DTD/sodipodi-0.dtd"
   xmlns:inkscape="http://www.inkscape.org/namespaces/inkscape"
   width="48"
   height="48"
   version="1"
   id="svg12"
   sodipodi:docname="high.svg"
   inkscape:version="1.0.2 (e86c870879, 2021-01-15)">
  <metadata
     id="metadata18">
    <rdf:RDF>
      <cc:Work
         rdf:about="">
        <dc:format>image/svg+xml</dc:format>
        <dc:type
           rdf:resource="http://purl.org/dc/dcmitype/StillImage" />
      </cc:Work>
    </rdf:RDF>
  </metadata>
  <defs
     id="defs16" />
  <sodipodi:namedview
     pagecolor="#ffffff"
     bordercolor="#666666"
     borderopacity="1"
     objecttolerance="10"
     gridtolerance="10"
     guidetolerance="10"
     inkscape:pageopacity="0"
     inkscape:pageshadow="2"
     inkscape:window-width="1352"
     inkscape:window-height="734"
     id="namedview14"
     showgrid="false"
     inkscape:zoom="4.2573721"
     inkscape:cx="-13.224781"
     inkscape:cy="24.98663"
     inkscape:window-x="6"
     inkscape:window-y="26"
     inkscape:window-maximized="0"
     inkscape:current-layer="svg12" />
  <path
     fill="#e4e4e4"
     d="m29 4v4c6.3273 2.1143 11 8.6571 11 16s-4.6727 13.886-11 16v4c8.591-2.229 15-10.286 15-20s-6.409-17.771-15-20z"
     id="path2"
     style="fill:#000000" />
  <path
     fill="#e4e4e4"
     d="m4 14v20h9.0912l10.909 10v-40l-10.909 10z"
     id="path4"
     style="fill:#000000" />
  <path
     fill="#e4e4e4"
     d="m34 24c0-3.9-2.011-7.26-5-9v18c2.9609-1.74 5-5.1 5-9z"
     id="path6"
     style="fill:#000000" />
  <path
     opacity=".2"
     d="m29 8v1c6.1827 2.066 10.773 8.3626 10.98 15.5 0.005-0.167 0.02-0.332 0.02-0.5 0-7.343-4.673-13.886-11-16zm4.9668 16.494c-0.166 3.686-2.133 6.841-4.967 8.506v1c2.9609-1.74 5-5.1 5-9 0-0.1718-0.02549-0.33624-0.0332-0.50586zm10.012 0.006c-0.218 9.488-6.537 17.31-14.979 19.5v1c8.5909-2.2286 15-10.286 15-20 0-0.16859-0.01765-0.33243-0.02148-0.5zm-39.979 9.5v1h9.092l10.908 10v-1l-10.908-10h-9.092z"
     id="path8"
     style="fill:#000000" />
  <path
     fill="#fff"
     opacity=".2"
     d="m24 4l-10.908 10h-9.092v1h9.092l10.908-10v-1zm5 0v1c8.442 2.1899 14.761 10.012 14.979 19.5 0.003-0.168 0.021-0.331 0.021-0.5 0-9.714-6.409-17.771-15-20zm0 11v1c2.857 1.663 4.799 4.813 4.967 8.494 0.007-0.166 0.033-0.326 0.033-0.494 0-3.9-2.011-7.26-5-9zm10.98 9.5c-0.207 7.137-4.797 13.434-10.98 15.5v1c6.327-2.114 11-8.657 11-16 0-0.168-0.015-0.333-0.02-0.5z"
     id="path10"
     style="fill:#000000" />
</svg>
