<?xml version="1.0" encoding="UTF-8" standalone="no"?>
<svg
   xmlns:dc="http://purl.org/dc/elements/1.1/"
   xmlns:cc="http://creativecommons.org/ns#"
   xmlns:rdf="http://www.w3.org/1999/02/22-rdf-syntax-ns#"
   xmlns:svg="http://www.w3.org/2000/svg"
   xmlns="http://www.w3.org/2000/svg"
   xmlns:sodipodi="http://sodipodi.sourceforge.net/DTD/sodipodi-0.dtd"
   xmlns:inkscape="http://www.inkscape.org/namespaces/inkscape"
   width="48"
   height="48"
   version="1"
   id="svg12"
   sodipodi:docname="low.svg"
   inkscape:version="1.0.2 (e86c870879, 2021-01-15)">
  <metadata
     id="metadata18">
    <rdf:RDF>
      <cc:Work
         rdf:about="">
        <dc:format>image/svg+xml</dc:format>
        <dc:type
           rdf:resource="http://purl.org/dc/dcmitype/StillImage" />
      </cc:Work>
    </rdf:RDF>
  </metadata>
  <defs
     id="defs16" />
  <sodipodi:namedview
     pagecolor="#ffffff"
     bordercolor="#666666"
     borderopacity="1"
     objecttolerance="10"
     gridtolerance="10"
     guidetolerance="10"
     inkscape:pageopacity="0"
     inkscape:pageshadow="2"
     inkscape:window-width="1352"
     inkscape:window-height="734"
     id="namedview14"
     showgrid="false"
     inkscape:zoom="3.992207"
     inkscape:cx="-14.340792"
     inkscape:cy="37.402204"
     inkscape:window-x="6"
     inkscape:window-y="26"
     inkscape:window-maximized="0"
     inkscape:current-layer="svg12" />
  <path
     fill="#e4e4e4"
     opacity=".2"
     d="m29 4v4c6.3273 2.1143 11 8.6571 11 16s-4.6727 13.886-11 16v4c8.591-2.229 15-10.286 15-20s-6.409-17.771-15-20z"
     id="path2"
     style="fill:#000000" />
  <path
     fill="#e4e4e4"
     d="m4 14v20h9.0912l10.909 10v-40l-10.909 10z"
     id="path4"
     style="fill:#000000" />
  <path
     fill="#e4e4e4"
     opacity=".2"
     d="m34 24c0-3.9-2.011-7.26-5-9v18c2.9609-1.74 5-5.1 5-9z"
     id="path6"
     style="fill:#000000" />
  <path
     opacity=".2"
     d="m4 34v1h9.0918l10.908 10v-1l-10.908-10h-9.092z"
     id="path8"
     style="fill:#000000" />
  <path
     fill="#fff"
     opacity=".2"
     d="m24 4-10.908 10h-9.092v1h9.092l10.908-10v-1z"
     id="path10"
     style="fill:#000000" />
</svg>
