<?xml version="1.0" encoding="UTF-8" standalone="no"?>
<svg
   xmlns:dc="http://purl.org/dc/elements/1.1/"
   xmlns:cc="http://creativecommons.org/ns#"
   xmlns:rdf="http://www.w3.org/1999/02/22-rdf-syntax-ns#"
   xmlns:svg="http://www.w3.org/2000/svg"
   xmlns="http://www.w3.org/2000/svg"
   xmlns:sodipodi="http://sodipodi.sourceforge.net/DTD/sodipodi-0.dtd"
   xmlns:inkscape="http://www.inkscape.org/namespaces/inkscape"
   width="64"
   height="96"
   version="1"
   id="svg12"
   sodipodi:docname="emacs.svg"
   inkscape:version="1.0.2 (e86c870879, 2021-01-15, custom)"
   inkscape:export-filename="/home/josue/Documentos/dotfiles/resources/doom-emacs/emacs.png"
   inkscape:export-xdpi="96"
   inkscape:export-ydpi="96">
  <path
     style="opacity:1;fill:#808080;stroke-width:1.4732"
     d="m 16.070331,92.762987 c 0,0 3.161406,1.48719 7.369639,2.01196 1.704213,0.21252 8.188423,0.95532 13.16005,0.93587 0,0 6.05499,0.006 9.397299,-0.46794 3.497286,-0.49678 5.478395,-1.13079 6.581203,-2.39603 0.02887,-0.30168 0.532224,-1.28504 -0.82721,-2.23335 -3.475483,-2.42447 -7.968332,-3.08804 -16.695343,-5.16078 C 25.405581,83.02645 22.37367,80.70295 20.932623,79.021778 c -1.365975,-1.685179 0.404468,-5.18494 8.180611,-6.901763 3.937173,-0.958116 17.786081,-1.455083 17.786081,-1.455083 -4.207057,-3.339954 -11.290321,-8.998887 -12.904611,-10.270519 -1.415886,-1.115331 -3.697637,-2.826909 -3.942771,-4.356435 -0.330843,-1.488895 2.012752,-2.205795 3.253626,-2.288497 3.997865,-0.275718 9.457404,0.78178 14.31,1.746789 2.43926,0.485084 2.867508,0.413605 2.867508,0.413605 3.474011,0.165437 6.866563,-2.243098 6.728675,-6.075705 -0.0277,-3.887674 -4.604964,-7.00518 -8.906892,-7.141299 -4.351943,-0.01881 -14.66437,-0.01881 -14.66437,-0.01881 11.635622,2.398807 14.167915,3.608673 14.774857,5.009354 0.359452,0.827622 -0.598103,1.649941 -3.803703,1.489366 -3.491395,-0.17501 -10.645068,-1.020311 -10.645068,-1.020311 -6.808954,-1.047712 -10.96324,-2.040328 -13.031559,0.661744 -1.351008,1.76529 0.193042,3.915371 0.799603,5.183468 2.702073,4.715002 6.785353,7.94977 9.750238,10.229341 1.115626,0.857763 4.521724,2.757228 4.521724,2.757228 -10.587615,-2.895087 -19.613714,-1.268333 -24.962764,1.54405 -6.1486838,3.639595 -5.0968456,9.781207 4.659611,15.523297 5.762714,3.391509 9.22085,5.020529 18.655863,6.179029 5.514929,0.87936 6.6316,1.23916 6.589762,1.6982 -0.05913,0.64631 -6.822522,0.8912 -8.600334,1.01383 -4.523196,0.31193 -16.221279,-0.17967 -16.279616,-0.17967 z"
     id="path10" />
  <metadata
     id="metadata18">
    <rdf:RDF>
      <cc:Work
         rdf:about="">
        <dc:format>image/svg+xml</dc:format>
        <dc:type
           rdf:resource="http://purl.org/dc/dcmitype/StillImage" />
        <dc:title></dc:title>
      </cc:Work>
    </rdf:RDF>
  </metadata>
  <defs
     id="defs16" />
  <sodipodi:namedview
     pagecolor="#ffffff"
     bordercolor="#666666"
     borderopacity="1"
     objecttolerance="10"
     gridtolerance="10"
     guidetolerance="10"
     inkscape:pageopacity="0"
     inkscape:pageshadow="2"
     inkscape:window-width="1366"
     inkscape:window-height="699"
     id="namedview14"
     showgrid="false"
     inkscape:zoom="5.590563"
     inkscape:cx="82.548051"
     inkscape:cy="68.132227"
     inkscape:window-x="0"
     inkscape:window-y="0"
     inkscape:window-maximized="1"
     inkscape:current-layer="svg12"
     inkscape:document-rotation="0"
     inkscape:pagecheckerboard="true" />
</svg>
